<?xml version="1.0" encoding="utf-8"?>
<!-- Generator: Adobe Illustrator 26.0.1, SVG Export Plug-In . SVG Version: 6.00 Build 0)  -->
<svg version="1.1" id="Layer_1" xmlns="http://www.w3.org/2000/svg" xmlns:xlink="http://www.w3.org/1999/xlink" x="0px" y="0px"
	 viewBox="0 0 41 41" style="enable-background:new 0 0 41 41;" xml:space="preserve">
<style type="text/css">
	.st0{opacity:0.54;fill:#BFBFBF;}
	.st1{fill:#31FF76;}
</style>
<path class="st0" d="M12.4,0h17c4.4,0,7.9,3.5,7.9,7.9v25.2c0,4.4-3.5,7.9-7.9,7.9h-17c-4.4,0-7.9-3.5-7.9-7.9V7.9
	C4.5,3.5,8.1,0,12.4,0z"/>
<path class="st1" d="M30,19.5c0.6,0.6,0.6,1.5,0,2.1l-8.8,9L14,38c-0.9,0.9-2.5,0.3-2.5-1V20.5V4.1c0-1.3,1.6-2,2.5-1l7.3,7.4
	L30,19.5z"/>
</svg>
