<?xml version="1.0" encoding="utf-8"?>
<!-- Generator: Adobe Illustrator 26.0.1, SVG Export Plug-In . SVG Version: 6.00 Build 0)  -->
<svg version="1.1" id="Layer_1" xmlns="http://www.w3.org/2000/svg" xmlns:xlink="http://www.w3.org/1999/xlink" x="0px" y="0px"
	 viewBox="0 0 41 41" style="enable-background:new 0 0 41 41;" xml:space="preserve">
<style type="text/css">
	.st0{opacity:0.54;fill:#BFBFBF;}
	.st1{fill:#31FF76;}
</style>
<path class="st0" d="M29.5,41h-17c-4.4,0-7.9-3.5-7.9-7.9V7.9C4.5,3.5,8.1,0,12.4,0h17c4.4,0,7.9,3.5,7.9,7.9v25.2
	C37.3,37.5,33.8,41,29.5,41z"/>
<path class="st1" d="M11.8,21.6c-0.6-0.6-0.6-1.5,0-2.1l8.8-9l7.3-7.4c0.9-0.9,2.5-0.3,2.5,1v16.4v16.4c0,1.3-1.6,2-2.5,1l-7.3-7.4
	L11.8,21.6z"/>
</svg>
