<?xml version="1.0" encoding="utf-8"?>
<!-- Generator: Adobe Illustrator 26.0.1, SVG Export Plug-In . SVG Version: 6.00 Build 0)  -->
<svg version="1.1" id="icon-0" xmlns:svgjs="http://svgjs.dev/svgjs"
	 xmlns="http://www.w3.org/2000/svg" xmlns:xlink="http://www.w3.org/1999/xlink" x="0px" y="0px" viewBox="0 0 2000 207"
	 style="enable-background:new 0 0 2000 207;" xml:space="preserve">
<style type="text/css">
	.st0{fill:#66DB35;}
</style>
<g>
	<g>
		<path class="st0" d="M501.3,68.6C486,59.6,469.9,54,452.1,51.5v145.7h-41.3V51.5c-17.6,2.6-33.9,8.2-49.5,17.1l-14-30.9
			c24.7-14.8,54.1-22.2,83.9-22.2c30.1,0,59.7,7.4,84.2,22.2L501.3,68.6z"/>
		<path class="st0" d="M612.5,57.8v36.7c-3.3-0.3-5.9-0.5-8.9-0.5c-21.9,0-36.5,12-36.5,38.3v64.8h-39.8V59.9h38V78
			C575,64.7,591.4,57.8,612.5,57.8z"/>
		<path class="st0" d="M773,59.9v137.2h-38v-15.8c-9.9,12-24.5,17.9-42.9,17.9c-38.8,0-68.6-27.6-68.6-70.7s29.8-70.7,68.6-70.7
			c16.8,0,31.1,5.4,41.1,16.6V59.9H773z M734,128.5c0-23.7-15.3-38-34.9-38c-19.9,0-35.2,14.3-35.2,38c0,23.7,15.3,38,35.2,38
			C718.7,166.5,734,152.2,734,128.5z"/>
		<path class="st0" d="M944.7,59.9l-57.9,137.2h-41.1L788.1,59.9h41.1l38,93.4l39.3-93.4H944.7z"/>
		<path class="st0" d="M1059.5,154l21.2,23c-12.8,14.5-31.9,22.2-56.6,22.2c-47.4,0-78.3-29.8-78.3-70.7c0-41.1,31.1-70.7,73.5-70.7
			c38.8,0,70.7,25.5,70.9,69.4l-101.5,19.6c5.9,13.5,18.6,20.4,36.5,20.4C1039.6,167.3,1050.1,162.9,1059.5,154z M984.7,124.4
			l66.8-13c-3.8-14-15.8-23.5-32.4-23.5C999.3,87.9,985.5,101.2,984.7,124.4z"/>
		<path class="st0" d="M1115.6,151.7V7.8h39.8v141.6c0,11.7,6.1,18.1,17.1,18.1c4.3,0,8.9-1.3,11.2-2.6l1.8,30.9
			c-6.9,2.3-13.8,3.3-20.7,3.3C1134,199.2,1115.6,182.3,1115.6,151.7z"/>
		<path class="st0" d="M1548.3,87.4v109.7h-41.3V88.7c0-26-15.3-38-35.7-38c-22.4,0-38.5,12.2-38.5,40.6v105.9h-41.3V88.7
			c0-26-13.8-38-34.2-38c-21.9,0-38.3,12.2-38.3,40.6v105.9h-41.3V18.6h40.1v21.9c10.7-15.8,29.1-25,52.8-25
			c24.7,0,43.4,9.4,53.3,26.3c12.2-17.1,33.2-26.3,57.7-26.3C1523,15.5,1548.3,40.2,1548.3,87.4z"/>
		<path class="st0" d="M1724.3,59.9v137.2h-38v-15.8c-9.9,12-24.5,17.9-42.9,17.9c-38.8,0-68.6-27.6-68.6-70.7s29.8-70.7,68.6-70.7
			c16.8,0,31.1,5.4,41.1,16.6V59.9H1724.3z M1685.3,128.5c0-23.7-15.3-38-34.9-38c-19.9,0-35.2,14.3-35.2,38c0,23.7,15.3,38,35.2,38
			C1670,166.5,1685.3,152.2,1685.3,128.5z"/>
		<path class="st0" d="M1842.4,190.5c-8.2,5.9-20.2,8.7-32.1,8.7c-32.7,0-51.3-16.6-51.3-49.2V29.5h39.8v33.4h33.9v30.6h-33.9v55.9
			c0,11.7,6.1,18.1,16.8,18.1c5.9,0,11.7-1.8,16.3-5.1L1842.4,190.5z"/>
		<path class="st0" d="M1962.8,154l21.2,23c-12.8,14.5-31.9,22.2-56.6,22.2c-47.4,0-78.3-29.8-78.3-70.7c0-41.1,31.1-70.7,73.5-70.7
			c38.8,0,70.7,25.5,70.9,69.4l-101.5,19.6c5.9,13.5,18.6,20.4,36.5,20.4C1942.9,167.3,1953.4,162.9,1962.8,154z M1888.1,124.4
			l66.8-13c-3.8-14-15.8-23.5-32.4-23.5C1902.6,87.9,1888.8,101.2,1888.1,124.4z"/>
	</g>
	<g>
		<path class="st0" d="M80.6,85.2c-0.8,5.9-1.7,11.8-2.5,17.7c-0.5,3.2-0.7,6.5-1.4,9.7c-0.9,4.3,0.5,7.4,3.7,10.1
			c5,4.2,9.9,8.6,14.9,12.8c4.1,3.5,6.3,7.8,6.8,13.1c1.2,15.1,2.3,30.2,3.4,45.3c0.5,6.6-4.4,12.3-10.6,12.9
			c-6.9,0.7-12.7-3.7-13.4-10.6c-1.1-11.4-1.9-22.9-2.7-34.4c-0.6-9.1-0.5-9-7.4-14.9c-6.2-5.3-12.3-10.7-18.5-15.9
			c-7.5-6.2-10-14-8.6-23.5c2.4-16.2,4.6-32.4,6.9-48.6c1-7.2,5.2-12,12.2-13.8c6.8-1.7,12.6,0.4,17,5.9
			c6.3,7.9,12.5,15.9,18.6,23.9c1.2,1.6,2.5,2.2,4.5,2.2c8.1,0.1,16.3,0.4,24.4,0.6c6.1,0.2,10.5,4.4,10.5,10.1
			c0,5.9-4.5,10.1-10.8,10c-10.7-0.2-21.3-0.6-32-1c-3.5-0.1-6.2-1.8-8.4-4.5c-2-2.5-3.9-5-5.9-7.4C81,85,80.8,85.1,80.6,85.2z"/>
		<path class="st0" d="M268.6,83.7c-6.6-8.2-12.9-15.8-19.1-23.5c-4.3-5.3-8.7-10.5-10.2-17.5c-2.5-11.9,0.7-22.2,9.9-30
			c9.4-7.9,20.3-9.4,31.5-4.3c11.2,5,17.1,14.1,17.7,26.5c0.3,6.5-1.3,12.6-5.2,17.7C285.3,62.8,277.1,73,268.6,83.7z M281.6,35.6
			c0-7.4-5.9-13.2-13.2-13.1c-7.2,0.1-13,5.9-13,13c0,7.3,5.9,13.3,13.1,13.3C275.8,48.8,281.6,42.9,281.6,35.6z"/>
		<path class="st0" d="M45.7,57.8c-1.2,8.5-2.5,17.8-3.8,27c-1,7.1-2,14.2-3.1,21.3c-0.8,5.3-5.1,8.5-10.4,7.9
			c-4.5-0.5-9.1-1.2-13.6-1.9c-5.7-1-8.8-5-8.1-10.8c1.7-13,3.6-26.1,5.4-39.1c0.4-3,0.8-6.1,1.4-9.1c1-5.2,5.4-8.4,10.6-7.6
			c4.5,0.6,9.1,1.2,13.6,2C42.7,48.2,45.9,52.2,45.7,57.8z"/>
		<path class="st0" d="M44.1,130.6c6.3,5.5,12.6,10.9,18.7,16.4c0.5,0.4,0.6,1.7,0.4,2.5c-5.2,16.4-10.4,32.9-15.9,49.3
			c-2.2,6.5-8.9,9.7-15.1,7.7c-6.3-2.1-10-8.5-8-14.9c6.3-20.1,12.9-40.2,19.4-60.2C43.8,131,44,130.8,44.1,130.6z"/>
		<path class="st0" d="M95.5,19.4c0,10.7-8.7,19.5-19.3,19.5c-10.7,0-19.4-8.7-19.5-19.4C56.7,8.8,65.3,0.1,76.1,0
			C86.7-0.1,95.5,8.6,95.5,19.4z"/>
		<path class="st0" d="M124.2,103.4c2.4,0,4.4,0,6.7,0c-0.3,5.7-0.5,11.3-0.8,16.8c-1.1,20.7-2.2,41.4-3.3,62.2
			c-0.4,6.8-0.7,13.6-1.1,20.4c-0.2,2.7-1.4,4.2-3.6,4c-2.7-0.2-3.3-2-3.1-4.4c1.1-20.6,2.1-41.3,3.2-61.9
			C122.8,128.3,123.5,116,124.2,103.4z"/>
		<path class="st0" d="M246.2,78.1c2.9,0.1,4.4,1.2,4.9,3.3c0.5,2.2-0.4,4-2.5,4.7c-2.8,0.9-5.7,1.7-8.7,2.1c-2.2,0.3-3.8-1-4.4-3.1
			c-0.6-2.2,0.3-4.1,2.3-4.8C240.8,79.3,243.8,78.7,246.2,78.1z"/>
		<path class="st0" d="M222.3,83.9c2.9,0.2,4.5,1.2,4.9,3.4c0.4,2.2-0.4,4-2.6,4.7c-2.6,0.9-5.3,1.8-8,2.4c-2.2,0.5-3.9-0.6-4.7-2.6
			c-0.8-2.1-0.3-4.2,1.7-5C216.7,85.4,219.8,84.6,222.3,83.9z"/>
		<path class="st0" d="M211.4,158.8c0.6-1.3,0.9-2.2,1.4-3c1-1.8,2-3.5,2.9-5.3c1.1-2.2,3.1-3.3,5.2-2.6c2.2,0.7,3.7,2.8,2.8,5
			c-1.3,3-3,6-5,8.5c-0.7,0.9-3.2,1.1-4.5,0.6C213,161.7,212.3,159.9,211.4,158.8z"/>
		<path class="st0" d="M182.7,175.1c-0.6,0.6-1.6,2.3-3,2.8c-2.6,1-5.4,1.4-8.2,1.8c-2.3,0.3-4-0.9-4.6-3.2
			c-0.6-2.3,0.5-4.2,2.7-4.9c2.8-0.8,5.8-1.4,8.8-1.7C180.8,169.6,182.7,171.7,182.7,175.1z"/>
		<path class="st0" d="M190,111.6c2.4,0,9.4,7.9,9.2,10.4c-0.3,3.1-4,5.1-6.4,3.1c-2.4-2.1-4.7-4.6-6.4-7.3
			C184.6,115,186.9,111.6,190,111.6z"/>
		<path class="st0" d="M206,168.2c-0.5,0.6-1.4,2.2-2.7,2.9c-2.4,1.2-5,2-7.6,2.7c-2.3,0.7-4.4-0.6-5.1-2.8
			c-0.7-2.3,0.2-4.1,2.3-5.1c2.6-1.1,5.2-2.1,7.9-2.8C203.7,162.4,206,164.5,206,168.2z"/>
		<path class="st0" d="M204.7,96.8c0,3.2-8.8,9.5-11.8,8.4c-2.9-1-3.9-4.6-1.6-6.8c2.2-2.1,4.8-3.9,7.5-5.4
			C201.4,91.6,204.7,93.8,204.7,96.8z"/>
		<path class="st0" d="M147.9,183.4c-3.3,0.1-5-1.3-5.3-3.7c-0.3-2.4,1.2-4.2,3.8-4.6c2.5-0.4,5-0.7,7.5-0.9
			c2.5-0.2,4.3,1.3,4.6,3.5c0.3,2.2-1,4.3-3.4,4.7C152.6,182.9,150,183.1,147.9,183.4z"/>
		<path class="st0" d="M207.8,127.3c1.4,0.5,2.3,0.6,2.9,1.1c2.2,1.7,4.4,3.5,6.3,5.5c1.9,1.9,1.7,4.3,0,6c-1.6,1.6-3.9,1.6-5.8,0
			c-1.9-1.6-4.1-3.1-5.6-5c-0.9-1.2-1.3-3.3-0.9-4.8C205,128.9,206.8,128.1,207.8,127.3z"/>
		<path class="st0" d="M132.5,72.7c-2.3-0.2-4.3-0.4-6.7-0.6c0.2-3.8,0.2-7.6,0.8-11.3c0.2-1,2.1-2.3,3.4-2.5
			c1.9-0.3,3.1,1.2,3.1,3.2C133,65.1,132.7,68.8,132.5,72.7z"/>
	</g>
</g>
</svg>
